<svg xmlns="http://www.w3.org/2000/svg" style="display: none;">
  <symbol id="expand-more" viewBox="0 0 24 24">
    <path d="M12 15.375L6 9.37501L7.4 7.97501L12 12.575L16.6 7.97501L18 9.37501L12 15.375Z" fill="currentColor"/>
  </symbol>

  <symbol id="visibility" viewBox="0 0 24 24">
    <path d="M12 16C13.25 16 14.3125 15.5625 15.1875 14.6875C16.0625 13.8125 16.5 12.75 16.5 11.5C16.5 10.25 16.0625 9.1875 15.1875 8.3125C14.3125 7.4375 13.25 7 12 7C10.75 7 9.6875 7.4375 8.8125 8.3125C7.9375 9.1875 7.5 10.25 7.5 11.5C7.5 12.75 7.9375 13.8125 8.8125 14.6875C9.6875 15.5625 10.75 16 12 16ZM12 14.2C11.25 14.2 10.6125 13.9375 10.0875 13.4125C9.5625 12.8875 9.3 12.25 9.3 11.5C9.3 10.75 9.5625 10.1125 10.0875 9.5875C10.6125 9.0625 11.25 8.8 12 8.8C12.75 8.8 13.3875 9.0625 13.9125 9.5875C14.4375 10.1125 14.7 10.75 14.7 11.5C14.7 12.25 14.4375 12.8875 13.9125 13.4125C13.3875 13.9375 12.75 14.2 12 14.2ZM12 19C9.56667 19 7.35 18.3208 5.35 16.9625C3.35 15.6042 1.9 13.7833 1 11.5C1.9 9.21667 3.35 7.39583 5.35 6.0375C7.35 4.67917 9.56667 4 12 4C14.4333 4 16.65 4.67917 18.65 6.0375C20.65 7.39583 22.1 9.21667 23 11.5C22.1 13.7833 20.65 15.6042 18.65 16.9625C16.65 18.3208 14.4333 19 12 19ZM12 17C13.8833 17 15.6125 16.5042 17.1875 15.5125C18.7625 14.5208 19.9667 13.1833 20.8 11.5C19.9667 9.81667 18.7625 8.47917 17.1875 7.4875C15.6125 6.49583 13.8833 6 12 6C10.1167 6 8.3875 6.49583 6.8125 7.4875C5.2375 8.47917 4.03333 9.81667 3.2 11.5C4.03333 13.1833 5.2375 14.5208 6.8125 15.5125C8.3875 16.5042 10.1167 17 12 17Z" fill="currentColor"/>
  </symbol>

  <symbol id="visibility-off" viewBox="0 0 24 24">
    <path d="M16.1 13.3L14.65 11.85C14.8 11.0667 14.575 10.3334 13.975 9.65005C13.375 8.96672 12.6 8.70005 11.65 8.85005L10.2 7.40005C10.4833 7.26672 10.7708 7.16672 11.0625 7.10005C11.3542 7.03338 11.6667 7.00005 12 7.00005C13.25 7.00005 14.3125 7.43755 15.1875 8.31255C16.0625 9.18755 16.5 10.25 16.5 11.5C16.5 11.8334 16.4667 12.1459 16.4 12.4375C16.3333 12.7292 16.2333 13.0167 16.1 13.3ZM19.3 16.4501L17.85 15.05C18.4833 14.5667 19.0458 14.0375 19.5375 13.4625C20.0292 12.8875 20.45 12.2334 20.8 11.5C19.9667 9.81672 18.7708 8.47922 17.2125 7.48755C15.6542 6.49588 13.9167 6.00005 12 6.00005C11.5167 6.00005 11.0417 6.03338 10.575 6.10005C10.1083 6.16672 9.65 6.26672 9.2 6.40005L7.65 4.85005C8.33333 4.56672 9.03333 4.35422 9.75 4.21255C10.4667 4.07088 11.2167 4.00005 12 4.00005C14.5167 4.00005 16.7583 4.69588 18.725 6.08755C20.6917 7.47922 22.1167 9.28338 23 11.5C22.6167 12.4834 22.1125 13.3959 21.4875 14.2375C20.8625 15.0792 20.1333 15.8167 19.3 16.4501ZM19.8 22.6001L15.6 18.4501C15.0167 18.6334 14.4292 18.7709 13.8375 18.8626C13.2458 18.9542 12.6333 19.0001 12 19.0001C9.48333 19.0001 7.24167 18.3042 5.275 16.9126C3.30833 15.5209 1.88333 13.7167 1 11.5C1.35 10.6167 1.79167 9.79588 2.325 9.03755C2.85833 8.27922 3.46667 7.60005 4.15 7.00005L1.4 4.20005L2.8 2.80005L21.2 21.2001L19.8 22.6001ZM5.55 8.40005C5.06667 8.83338 4.625 9.30838 4.225 9.82505C3.825 10.3417 3.48333 10.9 3.2 11.5C4.03333 13.1834 5.22917 14.5209 6.7875 15.5125C8.34583 16.5042 10.0833 17.0001 12 17.0001C12.3333 17.0001 12.6583 16.9792 12.975 16.9376C13.2917 16.8959 13.6167 16.8501 13.95 16.8001L13.05 15.85C12.8667 15.9 12.6917 15.9376 12.525 15.9626C12.3583 15.9876 12.1833 16.0001 12 16.0001C10.75 16.0001 9.6875 15.5625 8.8125 14.6875C7.9375 13.8125 7.5 12.75 7.5 11.5C7.5 11.3167 7.5125 11.1417 7.5375 10.975C7.5625 10.8084 7.6 10.6334 7.65 10.45L5.55 8.40005Z" fill="currentColor"/>
  </symbol>

  <symbol id="close" viewBox="0 0 24 24">
    <path d="M6.39994 18.6538L5.34619 17.6L10.9462 12L5.34619 6.4L6.39994 5.34625L11.9999 10.9463L17.5999 5.34625L18.6537 6.4L13.0537 12L18.6537 17.6L17.5999 18.6538L11.9999 13.0538L6.39994 18.6538Z" fill="currentColor"/>
  </symbol>

  <symbol id="toast-success" viewBox="0 0 24 24">
    <path d="M9.5501 18L3.8501 12.3L5.2751 10.875L9.5501 15.15L18.7251 5.97498L20.1501 7.39998L9.5501 18Z" fill="currentColor"/>
  </symbol>

  <symbol id="toast-error" viewBox="0 0 24 24">
    <path d="M6.4 19L5 17.6L10.6 12L5 6.4L6.4 5L12 10.6L17.6 5L19 6.4L13.4 12L19 17.6L17.6 19L12 13.4L6.4 19Z" fill="currentColor"/>
  </symbol>

  <symbol id="toast-warning" viewBox="0 0 24 24">
    <path d="M11 14V5H13V14H11ZM11 19V17H13V19H11Z" fill="currentColor"/>
  </symbol>

  <symbol id="toast-info" viewBox="0 0 24 24">
    <path d="M13 10L13 19L11 19L11 10L13 10ZM13 5L13 7L11 7L11 5L13 5Z" fill="currentColor"/>
  </symbol>
</svg>

