<svg width="1432" height="920" viewBox="0 0 1432 920" fill="none" xmlns="http://www.w3.org/2000/svg">
<path d="M342.383 815.099C531.476 815.099 684.767 661.139 684.767 471.221C684.767 281.302 531.476 127.343 342.383 127.343C153.29 127.343 0 281.302 0 471.221C0 661.139 153.29 815.099 342.383 815.099Z" fill="#FBE104"/>
<path d="M703.077 667.524C817.594 667.524 910.429 574.284 910.429 459.267C910.429 344.249 817.594 251.009 703.077 251.009C588.559 251.009 495.724 344.249 495.724 459.267C495.724 574.284 588.559 667.524 703.077 667.524Z" fill="#FCEC43"/>
<path d="M225.662 368.705C180.347 368.705 143.729 417.896 143.729 479.04C143.729 539.725 180.347 589.376 225.662 589.376C270.978 589.376 307.596 540.184 307.596 479.04C307.596 418.356 270.978 368.705 225.662 368.705ZM224.747 538.805C200.487 538.805 180.805 512.141 180.805 479.04C180.805 445.94 200.487 419.275 224.747 419.275C249.007 419.275 268.689 445.94 268.689 479.04C268.232 512.141 249.007 538.805 224.747 538.805Z" fill="black"/>
<path d="M454.984 372.383V581.1H411.957L355.656 470.305V581.1H312.629V372.383H355.656L411.957 486.856V372.383H454.984Z" fill="black"/>
<path d="M602.833 372.383V581.1H559.806L503.505 470.305V581.1H460.478V372.383H503.505L559.806 486.856V372.383H602.833Z" fill="black"/>
<path d="M709.029 415.597V372.383H611.074V581.1H709.029V537.886H654.101V499.728H709.029V456.513H654.101V415.597H709.029Z" fill="black"/>
<path d="M124.965 433.067L150.598 399.047C150.598 399.047 128.169 369.624 95.2125 369.624C62.2558 369.624 41.6579 402.725 41.6579 428.929C41.6579 455.134 47.6084 476.741 78.7342 493.751C109.86 510.761 109.402 525.473 106.656 530.989C103.909 536.506 92.9239 557.194 54.0167 522.714C45.3198 536.506 30.6724 558.573 30.6724 558.573C30.6724 558.573 48.5239 589.835 94.7548 589.835C121.761 589.835 135.951 570.986 143.732 553.056C160.21 515.358 141.901 486.395 113.064 467.547C84.227 448.698 75.5301 435.365 83.3115 422.493C91.5507 409.161 111.233 417.436 124.965 433.067Z" fill="black"/>
<path d="M219.25 357.211C173.934 357.211 137.316 406.402 137.316 467.546C137.316 528.23 173.934 577.881 219.25 577.881C264.565 577.881 301.184 528.69 301.184 467.546C301.184 406.862 264.565 357.211 219.25 357.211ZM218.334 527.311C194.075 527.311 174.392 500.647 174.392 467.546C174.392 434.446 194.075 407.781 218.334 407.781C242.594 407.781 262.277 434.446 262.277 467.546C261.819 500.647 242.136 527.311 218.334 527.311Z" fill="white"/>
<path d="M443.083 360.884V569.601H400.514L343.756 458.806V569.601H301.187V360.884H343.756L400.514 475.357V360.884H443.083Z" fill="white"/>
<path d="M591.391 360.884V569.601H548.364L492.063 458.806V569.601H449.036V360.884H492.063L548.364 475.357V360.884H591.391Z" fill="white"/>
<path d="M697.584 404.098V360.884H599.63V569.601H697.584V526.387H642.657V488.229H697.584V445.014H642.657V404.098H697.584Z" fill="white"/>
<path d="M118.552 421.572L144.185 387.552C144.185 387.552 121.756 358.129 88.799 358.129C55.8423 358.129 35.2443 391.229 35.2443 417.434C35.2443 443.639 41.1949 465.246 72.3206 482.256C103.446 499.266 102.989 513.977 100.242 519.494C97.4959 525.011 86.5103 545.699 47.6031 511.219C38.9062 525.011 24.2588 547.078 24.2588 547.078C24.2588 547.078 42.1103 578.34 88.3412 578.34C115.347 578.34 129.537 559.491 137.319 541.561C153.797 503.863 135.488 474.9 106.65 456.051C77.8134 437.202 69.1165 423.87 76.8979 410.998C85.1371 397.666 104.82 405.941 118.552 421.572Z" fill="white"/>
<path d="M1231.3 571.903H1178.66L1085.74 465.246H1084.82V571.903H1044.54V478.578H944.301V571.903H904.021V359.048H944.301V445.018H1044.54V359.048H1084.82V453.293L1176.83 358.129H1228.09L1128.77 457.89L1231.3 571.903Z" fill="black"/>
<path d="M1315.52 351.235C1251.44 351.235 1199.26 402.265 1199.26 464.789C1199.26 527.312 1251.44 578.342 1315.52 578.342C1379.6 578.342 1431.78 527.772 1431.78 464.789C1431.78 401.806 1379.6 351.235 1315.52 351.235ZM1315.52 545.241C1274.78 545.241 1241.83 509.382 1241.83 464.789C1241.83 420.195 1274.78 384.336 1315.52 384.336C1356.26 384.336 1389.22 420.195 1389.22 464.789C1389.22 508.923 1356.26 545.241 1315.52 545.241Z" fill="black"/>
<path d="M876.554 520.876C863.28 536.507 844.055 546.621 822.542 546.621C781.804 546.621 748.847 510.762 748.847 467.087C748.847 423.413 781.804 387.554 822.542 387.554C841.766 387.554 859.618 395.829 872.892 409.161C884.793 398.588 896.237 388.933 901.729 383.876C881.131 366.407 853.668 355.373 823.915 355.373C759.375 355.373 707.193 405.484 707.193 467.087C707.193 528.691 759.375 578.802 823.915 578.802C855.956 578.802 884.793 566.389 905.849 546.621C894.406 536.966 883.878 527.312 876.554 520.876Z" fill="black"/>
<path d="M881.589 0C720.009 0 573.077 83.6709 490.228 221.13C485.193 219.291 480.158 218.372 474.665 218.372C449.032 218.372 427.977 239.519 427.977 265.264C427.977 291.009 449.032 312.157 474.665 312.157C500.298 312.157 521.354 291.009 521.354 265.264C521.354 255.15 518.15 245.496 512.657 238.14C590.014 107.117 728.249 27.5838 881.589 27.5838C1118.69 27.5838 1311.86 221.59 1311.86 459.73C1311.86 697.87 1118.69 891.876 881.589 891.876C738.319 891.876 607.865 822.457 527.762 705.226L565.754 684.078L471.003 626.612L468.715 737.867L503.502 718.558C589.098 844.524 728.249 919.46 881.589 919.46C1133.8 919.46 1339.32 713.041 1339.32 459.73C1339.32 206.419 1133.8 0 881.589 0Z" fill="black"/>
</svg>
