<svg width="200" height="129" viewBox="0 0 200 129" fill="none" xmlns="http://www.w3.org/2000/svg">
<path d="M47.8261 114.358C74.2397 114.358 95.6522 92.7577 95.6522 66.1122C95.6522 39.4667 74.2397 17.8662 47.8261 17.8662C21.4125 17.8662 0 39.4667 0 66.1122C0 92.7577 21.4125 114.358 47.8261 114.358Z" fill="#FBE104"/>
<path d="M98.2099 93.6538C114.206 93.6538 127.174 80.5722 127.174 64.4353C127.174 48.2984 114.206 35.2168 98.2099 35.2168C82.2134 35.2168 69.2457 48.2984 69.2457 64.4353C69.2457 80.5722 82.2134 93.6538 98.2099 93.6538Z" fill="#FCEC43"/>
<path d="M31.5218 51.7295C25.1919 51.7295 20.0768 58.631 20.0768 67.2095C20.0768 75.7235 25.1919 82.6895 31.5218 82.6895C37.8517 82.6895 42.9668 75.788 42.9668 67.2095C42.9668 58.6955 37.8517 51.7295 31.5218 51.7295ZM31.3939 75.5945C28.0052 75.5945 25.2558 71.8535 25.2558 67.2095C25.2558 62.5655 28.0052 58.8245 31.3939 58.8245C34.7827 58.8245 37.532 62.5655 37.532 67.2095C37.4681 71.8535 34.7827 75.5945 31.3939 75.5945Z" fill="black"/>
<path d="M63.5548 52.2451V81.5281H57.5446L49.6801 65.9836V81.5281H43.6699V52.2451H49.6801L57.5446 68.3056V52.2451H63.5548Z" fill="black"/>
<path d="M84.2072 52.2451V81.5281H78.197L70.3325 65.9836V81.5281H64.3223V52.2451H70.3325L78.197 68.3056V52.2451H84.2072Z" fill="black"/>
<path d="M99.0413 58.3081V52.2451H85.3584V81.5281H99.0413V75.4651H91.3686V70.1116H99.0413V64.0486H91.3686V58.3081H99.0413Z" fill="black"/>
<path d="M17.4558 60.7584L21.0364 55.9854C21.0364 55.9854 17.9034 51.8574 13.2998 51.8574C8.69625 51.8574 5.81901 56.5014 5.81901 60.1779C5.81901 63.8544 6.65021 66.8859 10.998 69.2724C15.3459 71.6589 15.2819 73.7229 14.8983 74.4969C14.5147 75.2709 12.9801 78.1734 7.54536 73.3359C6.33052 75.2709 4.28448 78.3669 4.28448 78.3669C4.28448 78.3669 6.77809 82.7529 13.2359 82.7529C17.0083 82.7529 18.9904 80.1084 20.0773 77.5929C22.3791 72.3039 19.8216 68.2404 15.7934 65.5959C11.7653 62.9514 10.5505 61.0809 11.6374 59.2749C12.7883 57.4044 15.5377 58.5654 17.4558 60.7584Z" fill="black"/>
<path d="M30.6262 50.1172C24.2962 50.1172 19.1812 57.0187 19.1812 65.5972C19.1812 74.1112 24.2962 81.0772 30.6262 81.0772C36.9561 81.0772 42.0712 74.1757 42.0712 65.5972C42.0712 57.0832 36.9561 50.1172 30.6262 50.1172ZM30.4983 73.9822C27.1095 73.9822 24.3602 70.2412 24.3602 65.5972C24.3602 60.9532 27.1095 57.2122 30.4983 57.2122C33.887 57.2122 36.6364 60.9532 36.6364 65.5972C36.5725 70.2412 33.8231 73.9822 30.4983 73.9822Z" fill="white"/>
<path d="M61.8924 50.6318V79.9148H55.9462L48.0178 64.3703V79.9148H42.0715V50.6318H48.0178L55.9462 66.6923V50.6318H61.8924Z" fill="white"/>
<path d="M82.6089 50.6318V79.9148H76.5987L68.7342 64.3703V79.9148H62.724V50.6318H68.7342L76.5987 66.6923V50.6318H82.6089Z" fill="white"/>
<path d="M97.4426 56.6948V50.6318H83.7598V79.9148H97.4426V73.8518H89.77V68.4983H97.4426V62.4353H89.77V56.6948H97.4426Z" fill="white"/>
<path d="M16.5599 59.1461L20.1405 54.3731C20.1405 54.3731 17.0075 50.2451 12.4039 50.2451C7.80032 50.2451 4.92308 54.8891 4.92308 58.5656C4.92308 62.2421 5.75428 65.2736 10.1021 67.6601C14.4499 70.0466 14.386 72.1106 14.0024 72.8846C13.6187 73.6586 12.0842 76.5611 6.64942 71.7236C5.43459 73.6586 3.38855 76.7546 3.38855 76.7546C3.38855 76.7546 5.88216 81.1406 12.34 81.1406C16.1123 81.1406 18.0944 78.4961 19.1814 75.9806C21.4832 70.6916 18.9256 66.6281 14.8975 63.9836C10.8694 61.3391 9.65454 59.4686 10.7415 57.6626C11.8924 55.7921 14.6417 56.9531 16.5599 59.1461Z" fill="white"/>
<path d="M171.995 80.2376H164.642L151.662 65.2736H151.535V80.2376H145.908V67.1441H131.905V80.2376H126.279V50.3741H131.905V62.4356H145.908V50.3741H151.535V63.5966L164.386 50.2451H171.547L157.673 64.2416L171.995 80.2376Z" fill="black"/>
<path d="M183.76 49.2783C174.808 49.2783 167.519 56.4378 167.519 65.2098C167.519 73.9818 174.808 81.1413 183.76 81.1413C192.711 81.1413 200 74.0463 200 65.2098C200 56.3733 192.711 49.2783 183.76 49.2783ZM183.76 76.4973C178.069 76.4973 173.465 71.4663 173.465 65.2098C173.465 58.9533 178.069 53.9223 183.76 53.9223C189.45 53.9223 194.054 58.9533 194.054 65.2098C194.054 71.4018 189.45 76.4973 183.76 76.4973Z" fill="black"/>
<path d="M122.442 73.0784C120.588 75.2714 117.902 76.6904 114.897 76.6904C109.207 76.6904 104.603 71.6594 104.603 65.5319C104.603 59.4044 109.207 54.3734 114.897 54.3734C117.583 54.3734 120.076 55.5344 121.931 57.4049C123.593 55.9214 125.192 54.5669 125.959 53.8574C123.082 51.4064 119.245 49.8584 115.089 49.8584C106.074 49.8584 98.7849 56.8889 98.7849 65.5319C98.7849 74.1749 106.074 81.2054 115.089 81.2054C119.565 81.2054 123.593 79.4639 126.534 76.6904C124.936 75.3359 123.465 73.9814 122.442 73.0784Z" fill="black"/>
<path d="M123.145 0C100.575 0 80.0508 11.739 68.4779 31.0245C67.7746 30.7665 67.0713 30.6375 66.304 30.6375C62.7235 30.6375 59.7823 33.6045 59.7823 37.2165C59.7823 40.8285 62.7235 43.7955 66.304 43.7955C69.8846 43.7955 72.8258 40.8285 72.8258 37.2165C72.8258 35.7975 72.3782 34.443 71.6109 33.411C82.4166 15.0285 101.726 3.87 123.145 3.87C156.266 3.87 183.248 31.089 183.248 64.5C183.248 97.911 156.266 125.13 123.145 125.13C103.133 125.13 84.9102 115.39 73.7209 98.943L79.0278 95.976L65.7925 87.9135L65.4728 103.522L70.3322 100.813C82.2887 118.486 101.726 129 123.145 129C158.376 129 187.084 100.039 187.084 64.5C187.084 28.9605 158.376 0 123.145 0Z" fill="black"/>
</svg>
